HIERARCHY
ROOT Hips
{
	OFFSET -0.001795 -0.223333 0.028219
	CHANNELS 6 Xposition Yposition Zposition Zrotation Yrotation Xrotation 
	JOINT LeftUpLeg
	{
		OFFSET 0.069520 -0.091406 -0.006815
		CHANNELS 3 Zrotation Yrotation Xrotation
		JOINT LeftLeg
		{
			OFFSET 0.034277 -0.375199 -0.004496
			CHANNELS 3 Zrotation Yrotation Xrotation
			JOINT LeftFoot
			{
				OFFSET -0.013596 -0.397961 -0.043693
				CHANNELS 3 Zrotation Yrotation Xrotation
				JOINT LeftToe
				{
					OFFSET 0.026358 -0.055791 0.119288
					CHANNELS 3 Zrotation Yrotation Xrotation
					End Site
					{
						OFFSET 0.000000 0.000000 0.000000
					}
				}
			}
		}
	}
	JOINT RightUpLeg
	{
		OFFSET -0.067670 -0.090522 -0.004320
		CHANNELS 3 Zrotation Yrotation Xrotation
		JOINT RightLeg
		{
			OFFSET -0.038290 -0.382569 -0.008850
			CHANNELS 3 Zrotation Yrotation Xrotation
			JOINT RightFoot
			{
				OFFSET 0.015774 -0.398415 -0.042312
				CHANNELS 3 Zrotation Yrotation Xrotation
				JOINT RightToe
				{
					OFFSET -0.025372 -0.048144 0.123348
					CHANNELS 3 Zrotation Yrotation Xrotation
					End Site
					{
						OFFSET 0.000000 0.000000 0.000000
					}
				}
			}
		}
	}
	JOINT Spine
	{
		OFFSET -0.002533 0.108963 -0.026696
		CHANNELS 3 Zrotation Yrotation Xrotation
		JOINT Spine1
		{
			OFFSET 0.005487 0.135180 0.001092
			CHANNELS 3 Zrotation Yrotation Xrotation
			JOINT Spine2
			{
				OFFSET 0.001457 0.052922 0.025425
				CHANNELS 3 Zrotation Yrotation Xrotation
				JOINT Neck
				{
					OFFSET -0.002778 0.213870 -0.042857
					CHANNELS 3 Zrotation Yrotation Xrotation
					JOINT Head
					{
						OFFSET 0.005152 0.064970 0.051349
						CHANNELS 3 Zrotation Yrotation Xrotation
						End Site
						{
							OFFSET 0.000000 0.000000 0.000000
						}
					}
				}
				JOINT LeftShoulder
				{
					OFFSET 0.078845 0.121749 -0.034090
					CHANNELS 3 Zrotation Yrotation Xrotation
					JOINT LeftArm
					{
						OFFSET 0.090977 0.030469 -0.008868
						CHANNELS 3 Zrotation Yrotation Xrotation
						JOINT LeftForeArm
						{
							OFFSET 0.259612 -0.012772 -0.027456
							CHANNELS 3 Zrotation Yrotation Xrotation
							JOINT LeftHand
							{
								OFFSET 0.249234 0.008986 -0.001171
								CHANNELS 3 Zrotation Yrotation Xrotation
								End Site
								{
									OFFSET 0.000000 0.000000 0.000000
								}
							}
						}
					}
				}
				JOINT RightShoulder
				{
					OFFSET -0.081759 0.118833 -0.038615
					CHANNELS 3 Zrotation Yrotation Xrotation
					JOINT RightArm
					{
						OFFSET -0.096012 0.032551 -0.009143
						CHANNELS 3 Zrotation Yrotation Xrotation
						JOINT RightForeArm
						{
							OFFSET -0.253742 -0.013329 -0.021401
							CHANNELS 3 Zrotation Yrotation Xrotation
							JOINT RightHand
							{
								OFFSET -0.255298 0.007772 -0.005559
								CHANNELS 3 Zrotation Yrotation Xrotation
								End Site
								{
									OFFSET 0.000000 0.000000 0.000000
								}
							}
						}
					}
				}
			}
		}
	}
}
MOTION
Frames: 18
Frame Time: 0.050000
0.691426 0.928021 1.788413 0.960572 -15.208440 1.304310 -9.744220 0.926362 4.450400 -1.635678 0.219096 2.504293 2.892643 7.045277 5.261958 0.000000 0.000000 0.000000 8.325859 5.217326 -26.444555 -1.961821 2.305983 22.070703 0.609775 -6.864035 13.887161 0.000000 0.000000 0.000000 3.346660 -0.616322 10.148262 5.497780 -2.341253 -4.772189 -10.150934 -10.734751 9.508565 4.867800 -3.144425 -23.286836 0.000000 0.000000 0.000000 -11.197602 -27.435101 15.541995 -36.961412 -49.583371 11.134786 16.934000 -29.479908 -2.529841 0.000000 0.000000 0.000000 19.503917 4.245439 -4.554910 61.826188 3.708428 -3.911029 7.392069 34.414735 1.369884 0.000000 0.000000 0.000000 
0.700144 0.924983 1.817287 0.876091 -15.456299 2.468533 -10.357354 0.747448 3.276001 -2.302647 0.357035 5.212969 2.917628 7.141726 5.814301 0.000000 0.000000 0.000000 8.915223 5.413814 -26.744769 -4.062610 3.495560 25.528242 -0.656006 -8.943240 13.287511 0.000000 0.000000 0.000000 4.673214 -0.844196 12.013374 5.177336 -2.204556 -4.611463 -9.960031 -10.459133 9.684604 5.330788 -3.242864 -24.448292 0.000000 0.000000 0.000000 -9.743299 -27.232391 14.823873 -40.121229 -50.603461 13.134251 19.529708 -31.939300 -3.360230 0.000000 0.000000 0.000000 17.985024 3.559279 -4.314380 63.282804 4.191762 -4.205254 5.651335 34.629551 0.945466 0.000000 0.000000 0.000000 
0.705515 0.925241 1.841667 0.769146 -17.076233 4.683192 -9.936115 0.007621 -0.604237 -3.899927 0.888635 9.909947 1.906005 5.418487 8.627040 0.000000 0.000000 0.000000 9.280538 5.765807 -27.622394 -5.730046 4.171356 25.646698 -0.217854 -7.785723 11.812959 0.000000 0.000000 0.000000 5.090977 -1.001711 14.395444 6.720790 -2.793253 -4.381266 -10.831226 -8.492106 8.618831 6.437712 -3.369694 -26.010678 0.000000 0.000000 0.000000 -8.105059 -25.757332 13.226524 -44.207307 -50.335209 15.028163 19.954299 -33.208182 -3.561342 0.000000 0.000000 0.000000 20.005237 3.643030 -4.447185 61.539747 5.836220 -2.765852 3.856093 36.552741 0.599522 0.000000 0.000000 0.000000 
0.708221 0.928615 1.859588 0.174621 -19.583547 7.641246 -6.946199 -0.880857 -6.389292 -6.883110 2.377265 16.316460 -2.746775 -2.069565 12.705736 0.000000 0.000000 0.000000 8.998510 6.317943 -29.511148 -5.298102 4.129899 25.511007 0.935342 -6.115206 12.128389 0.000000 0.000000 0.000000 5.509268 -1.122637 16.542151 5.928993 -2.459044 -3.578125 -9.577011 -7.488636 7.561701 6.862967 -3.461842 -26.270519 0.000000 0.000000 0.000000 -6.130380 -23.453949 11.563156 -49.371081 -49.900305 17.588271 21.292707 -32.681932 -3.766807 0.000000 0.000000 0.000000 19.828128 4.439344 -4.085203 62.052237 8.907166 -1.104151 3.457380 37.955324 0.422411 0.000000 0.000000 0.000000 
0.708826 0.933792 1.871152 -0.475736 -21.508105 10.373813 -3.500429 -1.359171 -13.919266 -8.920904 4.627279 24.997817 -2.681987 -2.714610 9.863868 0.000000 0.000000 0.000000 9.043124 6.983898 -31.380743 -5.202463 4.128787 25.189654 2.126263 -4.960196 13.627477 0.000000 0.000000 0.000000 4.607786 -0.968782 19.254497 5.766220 -2.264525 -6.156096 -8.376985 -5.362503 9.129066 5.454597 -2.496939 -29.134029 0.000000 0.000000 0.000000 -7.190555 -22.421689 11.458636 -51.194269 -48.556973 17.351678 21.362306 -30.993813 -3.514194 0.000000 0.000000 0.000000 19.549578 5.201049 -3.409121 62.141269 12.035663 0.298918 3.358361 41.484271 0.542341 0.000000 0.000000 0.000000 
0.708430 0.936359 1.878664 -0.714932 -22.701534 12.360185 0.063342 -1.011930 -21.512678 -7.293295 4.715578 28.954329 -2.847850 -3.052168 9.585400 0.000000 0.000000 0.000000 8.205634 6.943172 -31.867709 -4.131808 3.429037 23.151125 2.849130 -3.792107 13.618791 0.000000 0.000000 0.000000 3.567854 -0.673724 22.164831 5.594919 -2.154677 -6.628366 -7.940649 -4.055975 9.339985 6.472611 -2.680927 -30.408680 0.000000 0.000000 0.000000 -7.228671 -23.428099 11.926193 -46.545781 -49.701681 15.772324 22.698706 -26.854510 -3.381470 0.000000 0.000000 0.000000 18.181916 5.329528 -2.757863 63.713391 15.343722 1.806641 5.672519 46.921059 1.629362 0.000000 0.000000 0.000000 
0.708545 0.940770 1.883283 -1.183596 -24.194918 14.139865 2.254079 -0.264765 -26.527660 -2.110653 1.933358 24.869458 2.486129 5.566974 7.527600 0.000000 0.000000 0.000000 8.442877 7.112541 -31.924695 -4.473948 3.125736 20.735219 4.004844 -2.435855 14.511091 0.000000 0.000000 0.000000 1.837721 0.026052 25.928286 5.539359 -2.069057 -7.784894 -8.144426 -2.013746 9.380431 9.425681 -3.397254 -32.507477 0.000000 0.000000 0.000000 -5.734115 -25.981792 12.481191 -40.589253 -52.603265 14.528464 24.839196 -21.274542 -3.089654 0.000000 0.000000 0.000000 17.848665 5.528182 -2.149954 65.109042 19.537852 4.135016 4.340969 52.650073 1.528215 0.000000 0.000000 0.000000 
0.709269 0.942965 1.886992 -2.085075 -24.485638 16.274793 3.529902 0.207050 -28.085022 2.098186 -0.158938 17.181786 5.500786 10.677352 11.865210 0.000000 0.000000 0.000000 8.385409 7.505710 -33.122694 -3.662977 2.736323 19.739500 4.421987 -2.355482 15.498329 0.000000 0.000000 0.000000 1.165187 0.399956 27.854351 4.973295 -1.808230 -8.970148 -7.973927 -2.579646 11.229410 11.536647 -4.096105 -34.079681 0.000000 0.000000 0.000000 -3.059739 -27.698819 12.571507 -34.413408 -55.333810 13.114334 27.443271 -16.688979 -2.681958 0.000000 0.000000 0.000000 17.021042 7.829918 -1.082459 67.202646 23.789833 6.501227 -3.432336 59.882509 -2.819256 0.000000 0.000000 0.000000 
0.711229 0.944050 1.890620 -2.891160 -25.308090 18.714312 4.913794 0.702450 -28.414129 2.331405 -0.371294 12.359110 6.840893 12.551898 14.935615 0.000000 0.000000 0.000000 8.924717 7.979461 -33.902150 -4.319089 2.530414 17.528091 5.115448 -1.560821 15.945932 0.000000 0.000000 0.000000 -0.020911 0.937895 28.881625 5.062120 -1.801589 -9.226025 -7.867173 -2.109907 11.175629 10.973502 -3.590004 -35.232222 0.000000 0.000000 0.000000 0.047318 -28.525104 11.907068 -29.655726 -57.706684 12.062171 30.210405 -13.285831 -2.262401 0.000000 0.000000 0.000000 16.876668 9.714719 -0.064391 68.169567 27.823060 9.106275 -15.229283 63.915341 -10.203770 0.000000 0.000000 0.000000 
0.714104 0.942158 1.894734 -3.816050 -25.856006 20.826605 6.429901 1.237034 -28.810735 0.621158 -0.001774 10.398853 7.345922 13.268220 14.226599 0.000000 0.000000 0.000000 9.095684 8.424933 -34.900607 -4.128995 2.298609 16.375755 5.358294 -1.080083 15.723122 0.000000 0.000000 0.000000 -0.201049 1.146887 29.640375 4.154267 -1.511476 -8.420630 -7.558117 -2.473253 9.863614 11.246214 -3.868421 -33.788151 0.000000 0.000000 0.000000 2.325149 -29.469282 11.637782 -25.876732 -57.990497 10.686944 33.205891 -12.562046 -2.307393 0.000000 0.000000 0.000000 16.008221 10.793748 0.480454 68.007573 31.255940 11.257346 -29.753454 66.466782 -20.571952 0.000000 0.000000 0.000000 
0.717421 0.942393 1.897395 -4.198024 -26.946475 22.592265 7.359846 1.626575 -28.936898 -1.069128 0.326911 8.144786 7.991272 14.089981 14.623940 0.000000 0.000000 0.000000 9.020774 8.573866 -35.181272 -4.380696 1.985136 14.056837 6.100805 -0.030114 15.940551 0.000000 0.000000 0.000000 -1.210314 1.707645 30.274931 3.950795 -1.439737 -7.892153 -7.329899 -2.534608 9.695504 11.412576 -3.603745 -35.453991 0.000000 0.000000 0.000000 5.176306 -29.399693 10.728569 -25.905032 -57.704173 11.018995 38.191482 -13.506531 -2.818378 0.000000 0.000000 0.000000 15.073430 12.287074 1.263498 67.712149 36.406362 14.301775 -45.406737 66.422103 -31.341696 0.000000 0.000000 0.000000 
0.720409 0.943364 1.897841 -4.467809 -28.025249 24.303348 8.115939 2.095198 -29.740091 -2.570770 0.625527 6.849746 8.507950 14.648259 15.501839 0.000000 0.000000 0.000000 8.932250 8.711080 -35.395538 -4.670053 1.635422 11.407605 6.983469 0.926592 16.630383 0.000000 0.000000 0.000000 -1.762366 2.202454 31.306434 3.520774 -1.273765 -8.535313 -7.671095 -3.017272 9.723134 11.574872 -3.519474 -36.317311 0.000000 0.000000 0.000000 7.064427 -28.757690 9.949494 -25.438908 -57.383414 11.092555 41.422550 -13.981560 -3.072358 0.000000 0.000000 0.000000 13.452326 14.427865 2.384999 65.991836 42.445989 17.275327 -60.215215 62.455616 -39.186085 0.000000 0.000000 0.000000 
0.722829 0.943796 1.896111 -4.741214 -29.082825 25.359925 8.647321 2.539171 -30.575605 -3.527345 0.851844 6.677757 8.976349 15.150930 16.159680 0.000000 0.000000 0.000000 8.765203 8.848611 -35.646517 -4.492684 1.377198 9.849782 7.710613 1.635450 17.289392 0.000000 0.000000 0.000000 -2.519315 2.670387 31.551028 3.691956 -1.326178 -8.425783 -8.035938 -2.493003 9.254055 12.330022 -3.632966 -36.665124 0.000000 0.000000 0.000000 8.916907 -29.267917 9.537319 -23.383586 -57.108553 10.162368 41.789469 -12.945446 -2.758621 0.000000 0.000000 0.000000 11.969998 15.872884 3.382429 62.228237 48.550610 19.472721 -67.730359 56.676569 -39.564133 0.000000 0.000000 0.000000 
0.725301 0.943464 1.893150 -5.029302 -29.717375 26.161261 8.869949 2.795101 -31.146220 -3.741882 0.885512 6.260058 9.296193 15.499690 16.484910 0.000000 0.000000 0.000000 8.681593 9.153697 -36.340894 -4.382983 1.300727 9.429055 8.070550 1.883657 17.745601 0.000000 0.000000 0.000000 -2.886927 2.940430 31.717863 3.807375 -1.368083 -7.821403 -8.668274 -3.053938 8.382483 12.603614 -4.129099 -34.528473 0.000000 0.000000 0.000000 10.437965 -30.159636 9.412897 -18.944924 -55.850830 7.913863 40.014003 -10.257048 -1.808393 0.000000 0.000000 0.000000 10.050558 18.172222 4.606649 55.523956 54.750892 19.733058 -68.742614 48.369739 -33.515496 0.000000 0.000000 0.000000 
0.727863 0.942161 1.889840 -5.546634 -30.600141 26.515168 9.531053 3.097823 -30.857909 -4.356334 1.001030 5.532033 9.813622 16.160781 16.442665 0.000000 0.000000 0.000000 8.565523 9.225152 -36.365451 -3.578537 1.103137 8.848346 8.481073 2.398627 17.930148 0.000000 0.000000 0.000000 -3.082287 3.302256 32.627208 3.579549 -1.299291 -7.518715 -8.795178 -3.156724 7.594712 12.104558 -4.205335 -33.100486 0.000000 0.000000 0.000000 12.099988 -31.671408 9.414862 -14.349831 -55.424574 5.853978 36.968678 -7.038583 -0.839286 0.000000 0.000000 0.000000 7.003300 19.489925 5.510216 49.404974 60.885103 19.249490 -66.623078 40.428909 -26.149482 0.000000 0.000000 0.000000 
0.730174 0.941257 1.886895 -5.680496 -30.824931 26.261295 9.525332 2.960158 -29.947589 -4.159947 0.888376 4.215210 10.027180 16.454932 16.340713 0.000000 0.000000 0.000000 8.449739 8.998597 -35.817759 -3.067969 0.931790 8.044848 8.639504 2.640744 17.933427 0.000000 0.000000 0.000000 -2.984812 3.478666 33.583919 3.426844 -1.252262 -7.852589 -9.380874 -3.873689 7.939708 11.713433 -4.427254 -31.604640 0.000000 0.000000 0.000000 13.446491 -32.641797 9.254415 -10.334837 -54.461401 4.058895 34.277822 -4.793015 -0.247808 0.000000 0.000000 0.000000 4.282214 21.203665 6.384045 40.199030 64.599158 14.960328 -61.992708 33.709201 -19.486269 0.000000 0.000000 0.000000 
0.731495 0.940762 1.884410 -5.354444 -30.774263 25.527738 9.165455 2.712342 -29.271646 -3.949218 0.819218 3.712374 10.011131 16.458474 16.244491 0.000000 0.000000 0.000000 8.017090 8.718441 -35.413832 -2.619736 0.869633 8.002343 8.525759 2.606197 17.725502 0.000000 0.000000 0.000000 -2.655588 3.347849 33.762138 2.889312 -1.083994 -7.677757 -9.745970 -4.191282 8.138682 11.892645 -4.634421 -31.079473 0.000000 0.000000 0.000000 13.657088 -33.655255 9.469008 -8.395763 -54.862930 3.285546 32.828602 -2.853234 0.175923 0.000000 0.000000 0.000000 2.039229 21.126992 6.522748 35.322771 65.929768 12.072053 -56.815519 30.567725 -15.723513 0.000000 0.000000 0.000000 
0.731433 0.940438 1.882065 -5.610201 -30.884172 25.250239 9.536029 2.645275 -27.961976 -3.982256 0.760516 2.038152 10.153355 16.620326 16.361579 0.000000 0.000000 0.000000 8.668127 8.372764 -33.986938 -2.812129 0.684099 6.128944 8.930626 3.086809 17.910727 0.000000 0.000000 0.000000 -2.909284 3.355596 33.255288 2.990692 -1.123425 -7.748276 -10.424860 -3.754963 7.891182 11.868710 -5.002514 -28.857900 0.000000 0.000000 0.000000 12.984976 -34.712548 10.030681 -8.956272 -55.126932 3.429345 32.422039 -2.559819 0.199583 0.000000 0.000000 0.000000 2.314561 21.413833 6.638739 33.237455 64.466416 10.604175 -51.858663 30.601709 -14.138918 0.000000 0.000000 0.000000 
